<mxfile host="app.diagrams.net" agent="Mozilla/5.0 (Windows NT 10.0; Win64; x64) AppleWebKit/537.36 (KHTML, like Gecko) Chrome/133.0.0.0 Safari/537.36" version="26.0.16">
  <diagram name="Página-1" id="gv-Kt_P6Ao2RYGeJ9Ke8">
    <mxGraphModel grid="1" page="1" gridSize="10" guides="1" tooltips="1" connect="1" arrows="1" fold="1" pageScale="1" pageWidth="827" pageHeight="1169" math="0" shadow="0">
      <root>
        <mxCell id="0" />
        <mxCell id="1" parent="0" />
        <mxCell id="vstCIP27WvsamUFVyaQl-4" style="edgeStyle=orthogonalEdgeStyle;rounded=0;orthogonalLoop=1;jettySize=auto;html=1;entryX=0;entryY=0.5;entryDx=0;entryDy=0;" edge="1" parent="1" source="vstCIP27WvsamUFVyaQl-2" target="vstCIP27WvsamUFVyaQl-3">
          <mxGeometry relative="1" as="geometry" />
        </mxCell>
        <mxCell id="vstCIP27WvsamUFVyaQl-2" value="RAW Data CSV&lt;div&gt;Planilha de Detecção de rumores&lt;/div&gt;" style="rounded=0;whiteSpace=wrap;html=1;" vertex="1" parent="1">
          <mxGeometry y="190" width="210" height="100" as="geometry" />
        </mxCell>
        <mxCell id="vstCIP27WvsamUFVyaQl-3" value="Convert shortened url to full url&lt;div&gt;&lt;i&gt;Selenium driver.get&lt;/i&gt;&lt;/div&gt;" style="rounded=0;whiteSpace=wrap;html=1;" vertex="1" parent="1">
          <mxGeometry x="280" y="190" width="180" height="100" as="geometry" />
        </mxCell>
        <mxCell id="vstCIP27WvsamUFVyaQl-5" value="Phase 0:&amp;nbsp;" style="text;html=1;align=center;verticalAlign=middle;whiteSpace=wrap;rounded=0;" vertex="1" parent="1">
          <mxGeometry x="280" y="160" width="180" height="30" as="geometry" />
        </mxCell>
        <mxCell id="vstCIP27WvsamUFVyaQl-9" value="Expanded urls&lt;div&gt;&lt;i&gt;Selenium&lt;/i&gt;&lt;/div&gt;" style="shape=cylinder3;whiteSpace=wrap;html=1;boundedLbl=1;backgroundOutline=1;size=15;fillColor=#d5e8d4;strokeColor=#82b366;" vertex="1" parent="1">
          <mxGeometry x="540" y="90" width="110" height="140" as="geometry" />
        </mxCell>
        <mxCell id="vstCIP27WvsamUFVyaQl-16" style="edgeStyle=orthogonalEdgeStyle;rounded=0;orthogonalLoop=1;jettySize=auto;html=1;" edge="1" parent="1" source="vstCIP27WvsamUFVyaQl-11" target="vstCIP27WvsamUFVyaQl-14">
          <mxGeometry relative="1" as="geometry" />
        </mxCell>
        <mxCell id="vstCIP27WvsamUFVyaQl-11" value="Not expanded urls" style="shape=cylinder3;whiteSpace=wrap;html=1;boundedLbl=1;backgroundOutline=1;size=15;fillColor=#f8cecc;strokeColor=#b85450;" vertex="1" parent="1">
          <mxGeometry x="540" y="250" width="110" height="140" as="geometry" />
        </mxCell>
        <mxCell id="vstCIP27WvsamUFVyaQl-12" style="edgeStyle=orthogonalEdgeStyle;rounded=0;orthogonalLoop=1;jettySize=auto;html=1;entryX=0;entryY=0.5;entryDx=0;entryDy=0;entryPerimeter=0;" edge="1" parent="1" source="vstCIP27WvsamUFVyaQl-3" target="vstCIP27WvsamUFVyaQl-9">
          <mxGeometry relative="1" as="geometry" />
        </mxCell>
        <mxCell id="vstCIP27WvsamUFVyaQl-13" style="edgeStyle=orthogonalEdgeStyle;rounded=0;orthogonalLoop=1;jettySize=auto;html=1;entryX=0;entryY=0.5;entryDx=0;entryDy=0;entryPerimeter=0;" edge="1" parent="1" source="vstCIP27WvsamUFVyaQl-3" target="vstCIP27WvsamUFVyaQl-11">
          <mxGeometry relative="1" as="geometry" />
        </mxCell>
        <mxCell id="vstCIP27WvsamUFVyaQl-14" value="Convert not expanded urls to full urls&lt;div&gt;&lt;i&gt;Manual conversion&lt;/i&gt;&lt;/div&gt;" style="rounded=0;whiteSpace=wrap;html=1;" vertex="1" parent="1">
          <mxGeometry x="750" y="300" width="180" height="100" as="geometry" />
        </mxCell>
        <mxCell id="vstCIP27WvsamUFVyaQl-15" value="Phase 1:&amp;nbsp;" style="text;html=1;align=center;verticalAlign=middle;whiteSpace=wrap;rounded=0;" vertex="1" parent="1">
          <mxGeometry x="750" y="270" width="180" height="30" as="geometry" />
        </mxCell>
        <mxCell id="vstCIP27WvsamUFVyaQl-21" style="edgeStyle=orthogonalEdgeStyle;rounded=0;orthogonalLoop=1;jettySize=auto;html=1;" edge="1" parent="1" source="vstCIP27WvsamUFVyaQl-17" target="vstCIP27WvsamUFVyaQl-22">
          <mxGeometry relative="1" as="geometry">
            <mxPoint x="1200" y="180" as="targetPoint" />
          </mxGeometry>
        </mxCell>
        <mxCell id="vstCIP27WvsamUFVyaQl-17" value="Broken urls" style="shape=cylinder3;whiteSpace=wrap;html=1;boundedLbl=1;backgroundOutline=1;size=15;fillColor=#f8cecc;strokeColor=#b85450;" vertex="1" parent="1">
          <mxGeometry x="990" y="370" width="110" height="140" as="geometry" />
        </mxCell>
        <mxCell id="vstCIP27WvsamUFVyaQl-18" style="edgeStyle=orthogonalEdgeStyle;rounded=0;orthogonalLoop=1;jettySize=auto;html=1;entryX=0;entryY=0.5;entryDx=0;entryDy=0;entryPerimeter=0;" edge="1" parent="1" source="vstCIP27WvsamUFVyaQl-14" target="vstCIP27WvsamUFVyaQl-17">
          <mxGeometry relative="1" as="geometry" />
        </mxCell>
        <mxCell id="vstCIP27WvsamUFVyaQl-22" value="Discard data" style="ellipse;shape=cloud;whiteSpace=wrap;html=1;" vertex="1" parent="1">
          <mxGeometry x="1170" y="400" width="120" height="80" as="geometry" />
        </mxCell>
        <mxCell id="vstCIP27WvsamUFVyaQl-24" value="Expanded urls&lt;div&gt;&lt;i&gt;Manual&lt;/i&gt;&lt;/div&gt;" style="shape=cylinder3;whiteSpace=wrap;html=1;boundedLbl=1;backgroundOutline=1;size=15;fillColor=#d5e8d4;strokeColor=#82b366;" vertex="1" parent="1">
          <mxGeometry x="990" y="10" width="110" height="140" as="geometry" />
        </mxCell>
        <mxCell id="vstCIP27WvsamUFVyaQl-32" style="edgeStyle=orthogonalEdgeStyle;rounded=0;orthogonalLoop=1;jettySize=auto;html=1;entryX=0;entryY=0.5;entryDx=0;entryDy=0;" edge="1" parent="1" source="vstCIP27WvsamUFVyaQl-25" target="eLNyt1xwdHLnImCCSU0m-17">
          <mxGeometry relative="1" as="geometry" />
        </mxCell>
        <mxCell id="vstCIP27WvsamUFVyaQl-25" value="Expand urls (full)" style="shape=cylinder3;whiteSpace=wrap;html=1;boundedLbl=1;backgroundOutline=1;size=15;fillColor=#d5e8d4;strokeColor=#82b366;" vertex="1" parent="1">
          <mxGeometry x="990" y="185" width="110" height="140" as="geometry" />
        </mxCell>
        <mxCell id="vstCIP27WvsamUFVyaQl-26" style="edgeStyle=orthogonalEdgeStyle;rounded=0;orthogonalLoop=1;jettySize=auto;html=1;entryX=0.5;entryY=0;entryDx=0;entryDy=0;entryPerimeter=0;" edge="1" parent="1" source="vstCIP27WvsamUFVyaQl-24" target="vstCIP27WvsamUFVyaQl-25">
          <mxGeometry relative="1" as="geometry" />
        </mxCell>
        <mxCell id="vstCIP27WvsamUFVyaQl-27" style="edgeStyle=orthogonalEdgeStyle;rounded=0;orthogonalLoop=1;jettySize=auto;html=1;entryX=0;entryY=0.5;entryDx=0;entryDy=0;entryPerimeter=0;" edge="1" parent="1" source="vstCIP27WvsamUFVyaQl-9" target="vstCIP27WvsamUFVyaQl-25">
          <mxGeometry relative="1" as="geometry" />
        </mxCell>
        <mxCell id="vstCIP27WvsamUFVyaQl-28" style="edgeStyle=orthogonalEdgeStyle;rounded=0;orthogonalLoop=1;jettySize=auto;html=1;entryX=0;entryY=0.5;entryDx=0;entryDy=0;entryPerimeter=0;" edge="1" parent="1" source="vstCIP27WvsamUFVyaQl-14" target="vstCIP27WvsamUFVyaQl-24">
          <mxGeometry relative="1" as="geometry" />
        </mxCell>
        <mxCell id="vstCIP27WvsamUFVyaQl-36" style="edgeStyle=orthogonalEdgeStyle;rounded=0;orthogonalLoop=1;jettySize=auto;html=1;" edge="1" parent="1" source="vstCIP27WvsamUFVyaQl-29" target="vstCIP27WvsamUFVyaQl-35">
          <mxGeometry relative="1" as="geometry" />
        </mxCell>
        <mxCell id="vstCIP27WvsamUFVyaQl-37" style="edgeStyle=orthogonalEdgeStyle;rounded=0;orthogonalLoop=1;jettySize=auto;html=1;" edge="1" parent="1" source="vstCIP27WvsamUFVyaQl-29" target="vstCIP27WvsamUFVyaQl-34">
          <mxGeometry relative="1" as="geometry" />
        </mxCell>
        <mxCell id="vstCIP27WvsamUFVyaQl-29" value="Retrieve HTML&lt;div&gt;&lt;i&gt;Wayback Machine&lt;/i&gt;&lt;/div&gt;" style="rounded=0;whiteSpace=wrap;html=1;" vertex="1" parent="1">
          <mxGeometry x="1370" y="200" width="180" height="100" as="geometry" />
        </mxCell>
        <mxCell id="vstCIP27WvsamUFVyaQl-31" value="Phase 3" style="text;html=1;align=center;verticalAlign=middle;whiteSpace=wrap;rounded=0;" vertex="1" parent="1">
          <mxGeometry x="1360" y="180" width="180" height="20" as="geometry" />
        </mxCell>
        <mxCell id="vstCIP27WvsamUFVyaQl-40" style="edgeStyle=orthogonalEdgeStyle;rounded=0;orthogonalLoop=1;jettySize=auto;html=1;" edge="1" parent="1" source="vstCIP27WvsamUFVyaQl-34" target="vstCIP27WvsamUFVyaQl-39">
          <mxGeometry relative="1" as="geometry" />
        </mxCell>
        <mxCell id="vstCIP27WvsamUFVyaQl-34" value="Retrieve HTML&lt;div&gt;&lt;i&gt;Wayback Machine&lt;/i&gt;&lt;/div&gt;&lt;div&gt;&lt;i&gt;FAIL&lt;/i&gt;&lt;/div&gt;" style="shape=cylinder3;whiteSpace=wrap;html=1;boundedLbl=1;backgroundOutline=1;size=15;fillColor=#f8cecc;strokeColor=#b85450;" vertex="1" parent="1">
          <mxGeometry x="1590" y="60" width="110" height="140" as="geometry" />
        </mxCell>
        <mxCell id="eLNyt1xwdHLnImCCSU0m-13" style="edgeStyle=orthogonalEdgeStyle;rounded=0;orthogonalLoop=1;jettySize=auto;html=1;entryX=0;entryY=0;entryDx=0;entryDy=97.5;entryPerimeter=0;" edge="1" parent="1" source="vstCIP27WvsamUFVyaQl-35" target="eLNyt1xwdHLnImCCSU0m-12">
          <mxGeometry relative="1" as="geometry">
            <Array as="points">
              <mxPoint x="1645" y="428" />
              <mxPoint x="2640" y="428" />
            </Array>
          </mxGeometry>
        </mxCell>
        <mxCell id="vstCIP27WvsamUFVyaQl-35" value="Retrieved HTML&lt;div&gt;&lt;i&gt;Wayback Machine&lt;/i&gt;&lt;/div&gt;&lt;div&gt;&lt;i&gt;SUCCESS&lt;/i&gt;&lt;/div&gt;" style="shape=cylinder3;whiteSpace=wrap;html=1;boundedLbl=1;backgroundOutline=1;size=15;fillColor=#d5e8d4;strokeColor=#82b366;" vertex="1" parent="1">
          <mxGeometry x="1590" y="250" width="110" height="140" as="geometry" />
        </mxCell>
        <mxCell id="vstCIP27WvsamUFVyaQl-48" style="edgeStyle=orthogonalEdgeStyle;rounded=0;orthogonalLoop=1;jettySize=auto;html=1;" edge="1" parent="1" source="vstCIP27WvsamUFVyaQl-39" target="vstCIP27WvsamUFVyaQl-43">
          <mxGeometry relative="1" as="geometry" />
        </mxCell>
        <mxCell id="vstCIP27WvsamUFVyaQl-39" value="Retrieve HTML&lt;div&gt;&lt;i&gt;Selenium&lt;/i&gt;&lt;/div&gt;" style="rounded=0;whiteSpace=wrap;html=1;" vertex="1" parent="1">
          <mxGeometry x="1780" y="80" width="180" height="100" as="geometry" />
        </mxCell>
        <mxCell id="vstCIP27WvsamUFVyaQl-50" style="edgeStyle=orthogonalEdgeStyle;rounded=0;orthogonalLoop=1;jettySize=auto;html=1;" edge="1" parent="1" source="vstCIP27WvsamUFVyaQl-41" target="vstCIP27WvsamUFVyaQl-49">
          <mxGeometry relative="1" as="geometry" />
        </mxCell>
        <mxCell id="vstCIP27WvsamUFVyaQl-41" value="Retrieved HTML&lt;div&gt;&lt;i&gt;Selenium&lt;/i&gt;&lt;br&gt;&lt;div&gt;&lt;i&gt;Error code 403&lt;/i&gt;&lt;/div&gt;&lt;/div&gt;" style="shape=cylinder3;whiteSpace=wrap;html=1;boundedLbl=1;backgroundOutline=1;size=15;fillColor=#f8cecc;strokeColor=#b85450;" vertex="1" parent="1">
          <mxGeometry x="2040" y="-130" width="110" height="140" as="geometry" />
        </mxCell>
        <mxCell id="vstCIP27WvsamUFVyaQl-51" style="edgeStyle=orthogonalEdgeStyle;rounded=0;orthogonalLoop=1;jettySize=auto;html=1;" edge="1" parent="1" source="vstCIP27WvsamUFVyaQl-43" target="vstCIP27WvsamUFVyaQl-49">
          <mxGeometry relative="1" as="geometry" />
        </mxCell>
        <mxCell id="vstCIP27WvsamUFVyaQl-43" value="Retrieved HTML&lt;div&gt;&lt;i&gt;Selenium&lt;/i&gt;&lt;br&gt;&lt;div&gt;&lt;i&gt;Error code 404&lt;/i&gt;&lt;/div&gt;&lt;/div&gt;" style="shape=cylinder3;whiteSpace=wrap;html=1;boundedLbl=1;backgroundOutline=1;size=15;fillColor=#f8cecc;strokeColor=#b85450;" vertex="1" parent="1">
          <mxGeometry x="2040" y="60" width="110" height="140" as="geometry" />
        </mxCell>
        <mxCell id="vstCIP27WvsamUFVyaQl-44" value="..." style="text;html=1;align=center;verticalAlign=middle;whiteSpace=wrap;rounded=0;" vertex="1" parent="1">
          <mxGeometry x="2068" y="10" width="60" height="30" as="geometry" />
        </mxCell>
        <mxCell id="vstCIP27WvsamUFVyaQl-45" value="Phase 4&amp;nbsp;" style="text;html=1;align=center;verticalAlign=middle;whiteSpace=wrap;rounded=0;" vertex="1" parent="1">
          <mxGeometry x="1780" y="60" width="180" height="20" as="geometry" />
        </mxCell>
        <mxCell id="vstCIP27WvsamUFVyaQl-47" style="edgeStyle=orthogonalEdgeStyle;rounded=0;orthogonalLoop=1;jettySize=auto;html=1;entryX=0;entryY=0.5;entryDx=0;entryDy=0;entryPerimeter=0;" edge="1" parent="1" source="vstCIP27WvsamUFVyaQl-39" target="vstCIP27WvsamUFVyaQl-41">
          <mxGeometry relative="1" as="geometry" />
        </mxCell>
        <mxCell id="eLNyt1xwdHLnImCCSU0m-6" style="edgeStyle=orthogonalEdgeStyle;rounded=0;orthogonalLoop=1;jettySize=auto;html=1;" edge="1" parent="1" source="vstCIP27WvsamUFVyaQl-49" target="eLNyt1xwdHLnImCCSU0m-5">
          <mxGeometry relative="1" as="geometry" />
        </mxCell>
        <mxCell id="vstCIP27WvsamUFVyaQl-49" value="Retrieve HTML&lt;div&gt;&lt;i&gt;Manual&lt;/i&gt;&lt;/div&gt;" style="rounded=0;whiteSpace=wrap;html=1;" vertex="1" parent="1">
          <mxGeometry x="2210" width="180" height="100" as="geometry" />
        </mxCell>
        <mxCell id="eLNyt1xwdHLnImCCSU0m-4" style="edgeStyle=orthogonalEdgeStyle;rounded=0;orthogonalLoop=1;jettySize=auto;html=1;" edge="1" parent="1" source="eLNyt1xwdHLnImCCSU0m-1" target="eLNyt1xwdHLnImCCSU0m-3">
          <mxGeometry relative="1" as="geometry" />
        </mxCell>
        <mxCell id="eLNyt1xwdHLnImCCSU0m-1" value="Retrieve HTML&lt;div&gt;&lt;i&gt;Manual&lt;/i&gt;&lt;/div&gt;&lt;div&gt;&lt;i&gt;FAIL&lt;/i&gt;&lt;/div&gt;" style="shape=cylinder3;whiteSpace=wrap;html=1;boundedLbl=1;backgroundOutline=1;size=15;fillColor=#f8cecc;strokeColor=#b85450;" vertex="1" parent="1">
          <mxGeometry x="2470" y="-140" width="110" height="140" as="geometry" />
        </mxCell>
        <mxCell id="eLNyt1xwdHLnImCCSU0m-2" style="edgeStyle=orthogonalEdgeStyle;rounded=0;orthogonalLoop=1;jettySize=auto;html=1;entryX=0;entryY=0.5;entryDx=0;entryDy=0;entryPerimeter=0;" edge="1" parent="1" source="vstCIP27WvsamUFVyaQl-49" target="eLNyt1xwdHLnImCCSU0m-1">
          <mxGeometry relative="1" as="geometry" />
        </mxCell>
        <mxCell id="eLNyt1xwdHLnImCCSU0m-3" value="Discard data" style="ellipse;shape=cloud;whiteSpace=wrap;html=1;" vertex="1" parent="1">
          <mxGeometry x="2660" y="-110" width="120" height="80" as="geometry" />
        </mxCell>
        <mxCell id="eLNyt1xwdHLnImCCSU0m-5" value="Retrieve HTML&lt;div&gt;&lt;i&gt;Manual&lt;/i&gt;&lt;/div&gt;&lt;div&gt;&lt;i&gt;SUCCESS&lt;/i&gt;&lt;/div&gt;" style="shape=cylinder3;whiteSpace=wrap;html=1;boundedLbl=1;backgroundOutline=1;size=15;fillColor=#d5e8d4;strokeColor=#82b366;" vertex="1" parent="1">
          <mxGeometry x="2470" y="90" width="110" height="140" as="geometry" />
        </mxCell>
        <mxCell id="eLNyt1xwdHLnImCCSU0m-14" style="edgeStyle=orthogonalEdgeStyle;rounded=0;orthogonalLoop=1;jettySize=auto;html=1;" edge="1" parent="1" source="eLNyt1xwdHLnImCCSU0m-7" target="eLNyt1xwdHLnImCCSU0m-12">
          <mxGeometry relative="1" as="geometry" />
        </mxCell>
        <mxCell id="eLNyt1xwdHLnImCCSU0m-7" value="Retrieve HTML&lt;div&gt;&lt;i&gt;Selenium&lt;/i&gt;&lt;/div&gt;&lt;div&gt;&lt;i&gt;SUCCESS&lt;/i&gt;&lt;/div&gt;" style="shape=cylinder3;whiteSpace=wrap;html=1;boundedLbl=1;backgroundOutline=1;size=15;fillColor=#d5e8d4;strokeColor=#82b366;" vertex="1" parent="1">
          <mxGeometry x="2043" y="270" width="110" height="140" as="geometry" />
        </mxCell>
        <mxCell id="eLNyt1xwdHLnImCCSU0m-8" style="edgeStyle=orthogonalEdgeStyle;rounded=0;orthogonalLoop=1;jettySize=auto;html=1;entryX=0;entryY=0.5;entryDx=0;entryDy=0;entryPerimeter=0;" edge="1" parent="1" source="vstCIP27WvsamUFVyaQl-39" target="eLNyt1xwdHLnImCCSU0m-7">
          <mxGeometry relative="1" as="geometry">
            <Array as="points">
              <mxPoint x="2000" y="130" />
              <mxPoint x="2000" y="340" />
            </Array>
          </mxGeometry>
        </mxCell>
        <mxCell id="eLNyt1xwdHLnImCCSU0m-10" value="Phase 5" style="text;html=1;align=center;verticalAlign=middle;whiteSpace=wrap;rounded=0;" vertex="1" parent="1">
          <mxGeometry x="2210" y="-20" width="180" height="20" as="geometry" />
        </mxCell>
        <mxCell id="eLNyt1xwdHLnImCCSU0m-26" style="edgeStyle=orthogonalEdgeStyle;rounded=0;orthogonalLoop=1;jettySize=auto;html=1;" edge="1" parent="1" source="eLNyt1xwdHLnImCCSU0m-12">
          <mxGeometry relative="1" as="geometry">
            <mxPoint x="2880" y="400" as="targetPoint" />
          </mxGeometry>
        </mxCell>
        <mxCell id="eLNyt1xwdHLnImCCSU0m-12" value="HTML&lt;div&gt;&lt;i&gt;Success&lt;/i&gt;&lt;/div&gt;" style="shape=cylinder3;whiteSpace=wrap;html=1;boundedLbl=1;backgroundOutline=1;size=15;fillColor=#d5e8d4;strokeColor=#82b366;" vertex="1" parent="1">
          <mxGeometry x="2660" y="330" width="110" height="140" as="geometry" />
        </mxCell>
        <mxCell id="eLNyt1xwdHLnImCCSU0m-15" style="edgeStyle=orthogonalEdgeStyle;rounded=0;orthogonalLoop=1;jettySize=auto;html=1;entryX=0;entryY=0;entryDx=0;entryDy=42.5;entryPerimeter=0;" edge="1" parent="1" source="eLNyt1xwdHLnImCCSU0m-5" target="eLNyt1xwdHLnImCCSU0m-12">
          <mxGeometry relative="1" as="geometry">
            <Array as="points">
              <mxPoint x="2520" y="373" />
            </Array>
          </mxGeometry>
        </mxCell>
        <mxCell id="eLNyt1xwdHLnImCCSU0m-22" style="edgeStyle=orthogonalEdgeStyle;rounded=0;orthogonalLoop=1;jettySize=auto;html=1;" edge="1" parent="1" source="eLNyt1xwdHLnImCCSU0m-17" target="eLNyt1xwdHLnImCCSU0m-20">
          <mxGeometry relative="1" as="geometry">
            <Array as="points">
              <mxPoint x="1330" y="120" />
              <mxPoint x="1330" y="10" />
            </Array>
          </mxGeometry>
        </mxCell>
        <mxCell id="eLNyt1xwdHLnImCCSU0m-17" value="Remove duplicates" style="rounded=0;whiteSpace=wrap;html=1;" vertex="1" parent="1">
          <mxGeometry x="1140" y="70" width="180" height="100" as="geometry" />
        </mxCell>
        <mxCell id="eLNyt1xwdHLnImCCSU0m-18" value="Phase 2" style="text;html=1;align=center;verticalAlign=middle;whiteSpace=wrap;rounded=0;" vertex="1" parent="1">
          <mxGeometry x="1140" y="170" width="180" height="30" as="geometry" />
        </mxCell>
        <mxCell id="eLNyt1xwdHLnImCCSU0m-19" value="Duplicated&amp;nbsp;" style="shape=cylinder3;whiteSpace=wrap;html=1;boundedLbl=1;backgroundOutline=1;size=15;fillColor=#f8cecc;strokeColor=#b85450;" vertex="1" parent="1">
          <mxGeometry x="1350" y="-220" width="110" height="140" as="geometry" />
        </mxCell>
        <mxCell id="eLNyt1xwdHLnImCCSU0m-23" style="edgeStyle=orthogonalEdgeStyle;rounded=0;orthogonalLoop=1;jettySize=auto;html=1;entryX=0;entryY=0.5;entryDx=0;entryDy=0;" edge="1" parent="1" source="eLNyt1xwdHLnImCCSU0m-20" target="vstCIP27WvsamUFVyaQl-29">
          <mxGeometry relative="1" as="geometry" />
        </mxCell>
        <mxCell id="eLNyt1xwdHLnImCCSU0m-20" value="Unique expanded URLs" style="shape=cylinder3;whiteSpace=wrap;html=1;boundedLbl=1;backgroundOutline=1;size=15;fillColor=#d5e8d4;strokeColor=#82b366;" vertex="1" parent="1">
          <mxGeometry x="1350" y="-60" width="110" height="140" as="geometry" />
        </mxCell>
        <mxCell id="eLNyt1xwdHLnImCCSU0m-21" style="edgeStyle=orthogonalEdgeStyle;rounded=0;orthogonalLoop=1;jettySize=auto;html=1;entryX=0;entryY=0.5;entryDx=0;entryDy=0;entryPerimeter=0;" edge="1" parent="1" source="eLNyt1xwdHLnImCCSU0m-17" target="eLNyt1xwdHLnImCCSU0m-19">
          <mxGeometry relative="1" as="geometry">
            <Array as="points">
              <mxPoint x="1240" y="-150" />
            </Array>
          </mxGeometry>
        </mxCell>
        <mxCell id="eLNyt1xwdHLnImCCSU0m-24" style="edgeStyle=orthogonalEdgeStyle;rounded=0;orthogonalLoop=1;jettySize=auto;html=1;" edge="1" parent="1" target="eLNyt1xwdHLnImCCSU0m-25">
          <mxGeometry relative="1" as="geometry">
            <mxPoint x="1560" y="-410" as="targetPoint" />
            <mxPoint x="1460" y="-150" as="sourcePoint" />
          </mxGeometry>
        </mxCell>
        <mxCell id="eLNyt1xwdHLnImCCSU0m-25" value="Discard data" style="ellipse;shape=cloud;whiteSpace=wrap;html=1;" vertex="1" parent="1">
          <mxGeometry x="1530" y="-190" width="120" height="80" as="geometry" />
        </mxCell>
        <mxCell id="eLNyt1xwdHLnImCCSU0m-27" value="HTML parsing&lt;div&gt;&lt;i&gt;Coming soon...&lt;/i&gt;&lt;/div&gt;" style="rounded=0;whiteSpace=wrap;html=1;" vertex="1" parent="1">
          <mxGeometry x="2880" y="350" width="180" height="100" as="geometry" />
        </mxCell>
      </root>
    </mxGraphModel>
  </diagram>
</mxfile>
